<?xml version="1.0" encoding="utf-8"?>
<svg version="1.1"
	 xmlns="http://www.w3.org/2000/svg" xmlns:xlink="http://www.w3.org/1999/xlink" width="96px" height="96px"
	 viewBox="0 0 96 96">
<switch>
	<g>
		<path d="M84,60c6.627,0,12-5.373,12-12s-5.373-12-12-12h-2.049c-0.426-1.204-0.913-2.379-1.46-3.521l1.45-1.449
			c4.686-4.687,4.686-12.284,0-16.971c-4.687-4.686-12.284-4.686-16.971,0l-1.449,1.45c-1.143-0.547-2.317-1.034-3.521-1.46V12
			c0-6.627-5.373-12-12-12S36,5.373,36,12v2.049c-1.204,0.426-2.379,0.913-3.521,1.46l-1.449-1.45
			c-4.687-4.686-12.284-4.686-16.971,0c-4.686,4.687-4.686,12.284,0,16.971l1.45,1.449c-0.547,1.143-1.034,2.317-1.46,3.521H12
			C5.373,36,0,41.373,0,48s5.373,12,12,12h2.049c0.426,1.204,0.913,2.379,1.46,3.521l-1.45,1.449
			c-4.686,4.687-4.686,12.284,0,16.971c4.687,4.686,12.284,4.686,16.971,0l1.449-1.45c1.143,0.547,2.317,1.034,3.521,1.46V84
			c0,6.627,5.373,12,12,12s12-5.373,12-12v-2.049c1.204-0.426,2.379-0.913,3.521-1.46l1.449,1.45c4.687,4.686,12.284,4.686,16.971,0
			c4.686-4.687,4.686-12.284,0-16.971l-1.45-1.449c0.547-1.143,1.034-2.317,1.46-3.521H84z M75.717,52
			c-0.679,4.744-2.547,9.104-5.291,12.769l5.701,5.702l0.157,0.156c1.562,1.562,1.562,4.096,0,5.657s-4.095,1.562-5.657,0
			l-0.156-0.157l-5.702-5.701C61.104,73.17,56.744,75.038,52,75.717V84c0,2.209-1.791,4-4,4s-4-1.791-4-4v-8.283
			c-4.744-0.679-9.104-2.547-12.769-5.291l-5.702,5.701l-0.156,0.157c-1.562,1.562-4.096,1.562-5.657,0s-1.562-4.095,0-5.657
			l0.157-0.156l5.701-5.702C22.83,61.104,20.962,56.744,20.283,52H12c-2.209,0-4-1.791-4-4s1.791-4,4-4h8.283
			c0.679-4.744,2.547-9.104,5.291-12.769l-5.701-5.702l-0.157-0.156c-1.562-1.562-1.562-4.096,0-5.657s4.095-1.562,5.657,0
			l0.156,0.157l5.702,5.701c3.665-2.744,8.024-4.612,12.769-5.291V12c0-2.209,1.791-4,4-4s4,1.791,4,4v8.283
			c4.744,0.679,9.104,2.547,12.769,5.291l5.702-5.701l0.156-0.157c1.562-1.562,4.096-1.562,5.657,0s1.562,4.095,0,5.657
			l-0.157,0.156l-5.701,5.702c2.744,3.665,4.612,8.024,5.291,12.769H84c2.209,0,4,1.791,4,4s-1.791,4-4,4H75.717z M48,32
			c-8.837,0-16,7.163-16,16s7.163,16,16,16s16-7.163,16-16S56.837,32,48,32z M48,56c-4.418,0-8-3.582-8-8s3.582-8,8-8s8,3.582,8,8
			S52.418,56,48,56z"/>
	</g>
</switch>
</svg>
